<?xml version="1.0" encoding="UTF-8" standalone="no"?>
<!-- Created with Inkscape (http://www.inkscape.org/) -->

<svg
   xmlns:dc="http://purl.org/dc/elements/1.1/"
   xmlns:cc="http://creativecommons.org/ns#"
   xmlns:rdf="http://www.w3.org/1999/02/22-rdf-syntax-ns#"
   xmlns:svg="http://www.w3.org/2000/svg"
   xmlns="http://www.w3.org/2000/svg"
   xmlns:sodipodi="http://sodipodi.sourceforge.net/DTD/sodipodi-0.dtd"
   xmlns:inkscape="http://www.inkscape.org/namespaces/inkscape"
   width="92.339584mm"
   height="38.099998mm"
   viewBox="0 0 92.339584 38.099998"
   version="1.1"
   id="svg8"
   inkscape:version="0.92.3 (2405546, 2018-03-11)"
   sodipodi:docname="SetupFraunhofer.svg">
  <defs
     id="defs2" />
  <sodipodi:namedview
     id="base"
     pagecolor="#ffffff"
     bordercolor="#666666"
     borderopacity="1.0"
     inkscape:pageopacity="0.0"
     inkscape:pageshadow="2"
     inkscape:zoom="3.9509852"
     inkscape:cx="127.72121"
     inkscape:cy="90.617949"
     inkscape:document-units="mm"
     inkscape:current-layer="layer1"
     showgrid="false"
     fit-margin-top="0"
     fit-margin-left="0"
     fit-margin-right="0"
     fit-margin-bottom="0"
     inkscape:window-width="1920"
     inkscape:window-height="1016"
     inkscape:window-x="0"
     inkscape:window-y="36"
     inkscape:window-maximized="1" />
  <metadata
     id="metadata5">
    <rdf:RDF>
      <cc:Work
         rdf:about="">
        <dc:format>image/svg+xml</dc:format>
        <dc:type
           rdf:resource="http://purl.org/dc/dcmitype/StillImage" />
        <dc:title />
      </cc:Work>
    </rdf:RDF>
  </metadata>
  <g
     inkscape:label="Livello 1"
     inkscape:groupmode="layer"
     id="layer1"
     transform="translate(-59.66354,-129.78334)">
    <path
       style="fill:#000000;stroke-width:0.26458332"
       d="m 99.195464,161.24297 c -0.09702,-0.097 -0.17639,-0.48298 -0.17639,-0.85769 0,-0.37472 -0.147963,-1.62166 -0.328805,-2.77097 l -0.328809,-2.08966 -3.309212,-1.57982 c -1.820069,-0.86891 -4.02359,-1.91074 -4.896715,-2.31518 -0.873125,-0.40444 -3.362088,-1.58369 -5.531029,-2.62054 -3.567595,-1.70548 -3.856079,-1.99713 -4.256785,-1.6345 -0.243612,0.22047 -0.677933,0.40085 -0.882499,0.551 -0.137404,0.10085 -0.387468,0.21743 -0.387468,0.50848 0,0.29104 -0.117099,0.69982 -0.241258,0.69982 -0.12416,0 -0.0765,-0.73445 -0.0079,-1.44882 0.126172,-1.31311 -0.254638,-4.18726 -0.767578,-5.79328 -0.414648,-1.29826 -1.005958,-0.9783 -1.615989,0.87442 -0.842786,2.55962 -0.893374,5.18295 -0.145415,7.54063 0.500909,1.57894 0.735317,1.98437 1.147287,1.98437 0.398741,0 0.590042,-0.37562 0.83223,-1.35689 0.56082,-2.26256 0.538342,-2.41818 0.768302,-2.68878 0.217855,-0.46939 -0.418818,2.59264 -0.730321,3.59777 -0.22598,0.72917 -0.384043,0.86146 -0.948354,0.79375 -0.766157,-0.0919 -1.143416,-0.93318 -1.738134,-3.8758 -0.568953,-2.81514 -0.97326,-2.39575 -0.97326,1.00958 v 2.94768 l -1.124479,-0.0814 -1.124479,-0.0814 -0.0751,-2.84427 c -0.04229,-1.60158 -0.186786,-2.84427 -0.330729,-2.84427 -0.140598,0 -0.255632,0.65484 -0.255632,1.4552 v 1.45521 h -5.027084 -5.027083 v -3.04854 -3.04855 l 4.960938,0.072 4.960937,0.072 0.07997,1.38906 c 0.140742,2.44457 0.560996,1.48704 0.63868,-1.45521 l 0.0751,-2.84427 1.124479,-0.0814 1.124479,-0.0814 v 2.92563 c 0,2.42417 0.06803,2.92563 0.396875,2.92563 0.231515,0 0.396875,-0.24053 0.396875,-0.57729 0,-1.01927 1.097124,-4.68177 1.503472,-5.01901 0.698123,-0.57939 1.239607,0.10361 1.704045,2.14942 0.339752,1.49658 0.605113,2.06174 1.194331,2.54367 0.41664,0.34078 0.85233,0.62388 0.968199,0.62911 0.24531,0.0111 1.144869,-0.40702 13.146347,-6.11028 l 4.361186,-2.07249 0.40682,-2.58458 c 0.22375,-1.42153 0.43411,-2.67389 0.467461,-2.78303 0.03335,-0.10914 0.06064,-0.3175 0.06064,-0.46302 0,-0.31286 0.96895,-0.35869 1.15681,-0.0547 0.0713,0.11543 0.2118,1.03721 0.28516,2.05052 0.28588,3.94875 0.16802,3.5545 1.34356,3.56044 1.95953,0.01 0.92459,-0.14883 0.98576,-0.33073 0.0855,-0.25413 0.31959,-0.23258 1.01086,0.0931 l 0.81748,0.44725 -0.82885,0.44762 c -0.6208,0.32102 -0.9428,0.37567 -1.01086,0.17153 -0.0549,-0.16475 0.83929,-0.29955 -0.9595,-0.29955 h -0.85966 l 0.0873,2.44739 c 0.048,1.34607 0.1566,3.19154 0.24132,4.10105 l 0.15402,1.65364 h 7.22688 7.2269 l 0.17609,-2.44739 c 0.0968,-1.34607 0.41633,-4.29287 0.70995,-6.54844 0.29363,-2.25557 0.5569,-4.39754 0.58505,-4.75992 0.0521,-0.67107 0.81838,-1.05603 1.23951,-0.62271 0.11931,0.12279 0.29042,1.05669 0.38022,2.07534 0.0898,1.01864 0.2683,2.62599 0.39667,3.57187 0.12836,0.94589 0.21729,1.95792 0.19759,2.24896 -0.0197,0.29104 0.0587,1.86862 0.17431,3.50573 l 0.21013,2.97656 h 12.14853 12.14853 v -3.83646 -3.83645 h 0.66146 0.66146 v 7.9375 7.9375 h -0.66146 -0.66146 v -3.96875 -3.96875 h -12.14419 -12.14419 l -0.1758,3.37343 c -0.18492,3.54829 -0.90181,10.64189 -1.1097,10.98021 -0.0671,0.10914 -0.41256,0.19844 -0.76777,0.19844 -0.5297,0 -0.64584,-0.13214 -0.64584,-0.73484 0,-0.40416 -0.23073,-2.39845 -0.51275,-4.43177 -0.28201,-2.03331 -0.57713,-4.86508 -0.65584,-6.29281 -0.0787,-1.42774 -0.2122,-2.70766 -0.29663,-2.84428 -0.0895,-0.14482 -3.11627,-0.24838 -7.25907,-0.24838 h -7.10555 l -0.15228,1.91822 c -0.0838,1.05503 -0.18323,2.96005 -0.22103,4.23337 l -0.0687,2.31515 0.30868,-4e-5 c 2.64158,-0.0118 1.40837,-0.12319 1.47806,-0.33077 0.0867,-0.25828 0.26543,-0.24848 0.8158,0.0447 1.44669,0.49486 1.35777,0.59379 -0.0186,1.07533 -0.37633,0.35575 -0.86416,0.14296 -0.86416,-0.009 0,-0.13794 1.20964,-0.25081 -1.43195,-0.25081 h -0.37362 l -0.14516,0.99219 c -0.0798,0.5457 -0.21816,1.70238 -0.30737,2.5704 -0.0892,0.86802 -0.21998,1.67169 -0.29059,1.78594 -0.15655,0.25331 -1.000425,0.27457 -1.243667,0.0313 z m 1.370456,-2.80017 c 0.47971,-4.38819 0.87302,-11.8459 0.71512,-13.5599 -0.0804,-0.87312 -0.20947,-2.89719 -0.28675,-4.49792 -0.0773,-1.60072 -0.25154,-3.62479 -0.38725,-4.49791 -0.1357,-0.87313 -0.2752,-2.03399 -0.30997,-2.57969 -0.0362,-0.56797 -0.20081,-0.99219 -0.38501,-0.99219 -0.324666,0 -0.461683,0.47222 -0.767703,2.64584 -0.09219,0.65484 -0.212122,1.48828 -0.266504,1.85208 -0.705321,4.71841 -0.913884,13.47407 -0.406863,17.08061 0.142044,1.01041 0.331496,2.48653 0.421005,3.28027 0.08951,0.79375 0.208174,1.5167 0.263705,1.60655 0.05553,0.0899 0.130315,0.66081 0.166187,1.2688 0.04894,0.82946 0.175363,1.10543 0.506389,1.10543 0.363854,0 0.493114,-0.47526 0.737644,-2.71197 z m 18.52586,-0.1323 c 0.63123,-6.03473 0.88268,-10.89318 0.70862,-13.69218 -0.0995,-1.60073 -0.23624,-3.86292 -0.30378,-5.02709 -0.0675,-1.16416 -0.23687,-2.83104 -0.3763,-3.70416 -0.13942,-0.87313 -0.25439,-2.03399 -0.25549,-2.57969 -0.002,-0.82463 -0.094,-0.99219 -0.54678,-0.99219 -0.29963,0 -0.1992,0.003 -0.43074,0.19844 0,0 -0.0466,1.32953 -0.24294,2.71198 -0.79404,5.59095 -0.90513,7.0137 -0.92177,11.80521 -0.013,3.72906 0.12201,5.96679 0.53227,8.82506 0.30229,2.10607 0.54963,4.1599 0.54963,4.56406 0,0.54148 0.13022,0.73483 0.49488,0.73483 0.43432,0 0.5313,-0.3481 0.7924,-2.84427 z m -20.994445,-5.15937 c -0.09523,-1.05503 -0.216866,-2.8112 -0.270309,-3.9026 -0.05344,-1.09141 -0.104749,-2.04391 -0.114014,-2.11667 -0.01622,-0.12745 -16.420929,-0.19708 -16.420991,-0.0697 -1.6e-5,0.0344 0.386923,0.23067 0.859866,0.43609 0.472942,0.20543 4.250529,1.99296 8.394636,3.9723 4.144108,1.97935 7.577312,3.59881 7.629345,3.59881 0.05203,0 0.0167,-0.8632 -0.07853,-1.91823 z m 47.488415,-6.28385 c 0,-6.64399 -0.0532,-7.67292 -0.39688,-7.67292 -0.34365,0 -0.39687,1.02893 -0.39687,7.67292 0,6.64398 0.0532,7.67291 0.39687,7.67291 0.34366,0 0.39688,-1.02893 0.39688,-7.67291 z m -71.172926,-0.1323 v -5.68854 H 73.62929 72.845757 l -0.07636,5.57881 c -0.042,3.06834 -0.02675,5.62819 0.03388,5.68854 0.06063,0.0603 0.447586,0.10974 0.859895,0.10974 h 0.749653 z m -2.910417,0 v -2.77812 h -4.7625 -4.7625 v 2.77812 2.77813 h 4.7625 4.7625 z m 8.709202,0.20716 c 0.06063,-0.0412 -0.147726,-0.0749 -0.463021,-0.0749 -0.352407,0 -0.573264,0.16538 -0.573264,0.42927 0,0.36745 0.06668,0.37823 0.463021,0.0749 0.254661,-0.19493 0.51263,-0.3881 0.573264,-0.42928 z m 0,-0.41432 c -0.06063,-0.0412 -0.318603,-0.23435 -0.573264,-0.42927 -0.396341,-0.30336 -0.463021,-0.29258 -0.463021,0.0749 0,0.26389 0.220857,0.42927 0.573264,0.42927 0.315295,0 0.523654,-0.0337 0.463021,-0.0749 z m 17.727037,-3.819 c 0.177625,-2.13855 0.388691,-3.99464 0.469037,-4.12464 0.08035,-0.13 -0.07664,-0.11906 -0.348866,0.0243 -0.272225,0.14337 -2.399951,1.15662 -4.728284,2.25166 -2.328334,1.09505 -5.95974,2.82458 -8.069792,3.84341 l -3.836459,1.85241 8.095703,0.0206 8.095702,0.0206 0.322959,-3.88828 z m 10.628934,14.68191 c 0.007,-0.91143 0.005,-0.90585 -0.0142,-1.9245 0.0762,-1.7863 0.19757,-1.56368 0.21765,1.52136 0.0207,1.85539 -0.007,3.37343 -0.0605,3.37343 -0.054,0 -0.13547,-2.14848 -0.14297,-2.97029 z m 0.0486,-5.49637 c 0,-0.65485 0.0516,-0.92274 0.11466,-0.59531 0.0631,0.32742 0.0631,0.8632 0,1.19062 -0.0631,0.32742 -0.11466,0.0595 -0.11466,-0.59531 z m 0,-3.175 c 0,-0.65485 0.0516,-0.92274 0.11466,-0.59531 0.0631,0.32742 0.0631,0.8632 0,1.19062 -0.0631,0.32742 -0.11466,0.0595 -0.11466,-0.59531 z m 0,-3.70417 c 0,-0.65484 0.0516,-0.92273 0.11466,-0.59531 0.0631,0.32742 0.0631,0.8632 0,1.19062 -0.0631,0.32743 -0.11466,0.0595 -0.11466,-0.59531 z m 0,-3.175 c 0,-0.65484 0.0516,-0.92273 0.11466,-0.59531 0.0631,0.32742 0.0631,0.8632 0,1.19062 -0.0631,0.32743 -0.11466,0.0595 -0.11466,-0.59531 z m -0.0403,-3.9159 c 0,0 0.0226,-2.88288 0.0299,-4.14968 0.12855,-1.93829 0.11115,-1.05261 0.15363,2.3109 0.0501,3.96865 -0.0223,4.84272 -0.1835,1.83878 z"
       id="path27"
       inkscape:connector-curvature="0"
       sodipodi:nodetypes="cscccsccsssccsssccscssccccssccccccccccccssscsccscccscsscccccscccccccsccscsccccccccccccccccccsssccsccccccccsscccccccccccscscsccscsccccscsccsssccccccsccsssssccccscsccccccccccccsscccccsscccccccccccsccscsssssssssscssccscccccc" />
    <text
       xml:space="preserve"
       style="font-style:normal;font-variant:normal;font-weight:normal;font-stretch:normal;font-size:2.64583349px;line-height:125%;font-family:'IbycusHTG Polytonic Greek';-inkscape-font-specification:'IbycusHTG Polytonic Greek';letter-spacing:0px;word-spacing:0px;fill:#000000;fill-opacity:1;stroke:none;stroke-width:0.26458332px;stroke-linecap:butt;stroke-linejoin:miter;stroke-opacity:1"
       x="142.7623"
       y="158.05742"
       id="text821"><tspan
         sodipodi:role="line"
         id="tspan819"
         x="142.7623"
         y="158.05742"
         style="font-style:normal;font-variant:normal;font-weight:normal;font-stretch:normal;font-size:2.64583349px;font-family:'Mint Spirit';-inkscape-font-specification:'Mint Spirit';stroke-width:0.26458332px">CCD</tspan></text>
    <text
       xml:space="preserve"
       style="font-style:normal;font-variant:normal;font-weight:normal;font-stretch:normal;font-size:2.64583349px;line-height:125%;font-family:'IbycusHTG Polytonic Greek';-inkscape-font-specification:'IbycusHTG Polytonic Greek';letter-spacing:0px;word-spacing:0px;fill:#000000;fill-opacity:1;stroke:none;stroke-width:0.26458332px;stroke-linecap:butt;stroke-linejoin:miter;stroke-opacity:1"
       x="105.55259"
       y="163.31812"
       id="text821-7"><tspan
         sodipodi:role="line"
         id="tspan819-0"
         x="105.55259"
         y="163.31812"
         style="font-style:normal;font-variant:normal;font-weight:normal;font-stretch:normal;font-size:2.64583349px;font-family:'Mint Spirit';-inkscape-font-specification:'Mint Spirit';stroke-width:0.26458332px">5 Slits</tspan></text>
    <text
       xml:space="preserve"
       style="font-style:normal;font-variant:normal;font-weight:normal;font-stretch:normal;font-size:2.64583349px;line-height:125%;font-family:'IbycusHTG Polytonic Greek';-inkscape-font-specification:'IbycusHTG Polytonic Greek';letter-spacing:0px;word-spacing:0px;fill:#000000;fill-opacity:1;stroke:none;stroke-width:0.26458332px;stroke-linecap:butt;stroke-linejoin:miter;stroke-opacity:1"
       x="76.623116"
       y="157.42509"
       id="text821-4"><tspan
         sodipodi:role="line"
         id="tspan819-6"
         x="76.623116"
         y="157.42509"
         style="font-style:normal;font-variant:normal;font-weight:normal;font-stretch:normal;font-size:2.64583349px;font-family:'Mint Spirit';-inkscape-font-specification:'Mint Spirit';stroke-width:0.26458332px">Beam Expander</tspan></text>
    <text
       xml:space="preserve"
       style="font-style:normal;font-variant:normal;font-weight:normal;font-stretch:normal;font-size:2.64583349px;line-height:125%;font-family:'IbycusHTG Polytonic Greek';-inkscape-font-specification:'IbycusHTG Polytonic Greek';letter-spacing:0px;word-spacing:0px;fill:#000000;fill-opacity:1;stroke:none;stroke-width:0.26458332px;stroke-linecap:butt;stroke-linejoin:miter;stroke-opacity:1"
       x="63.162872"
       y="152.87137"
       id="text821-8"><tspan
         sodipodi:role="line"
         id="tspan819-9"
         x="63.162872"
         y="152.87137"
         style="font-style:normal;font-variant:normal;font-weight:normal;font-stretch:normal;font-size:2.64583349px;font-family:'Mint Spirit';-inkscape-font-specification:'Mint Spirit';stroke-width:0.26458332px">LASER</tspan></text>
  </g>
</svg>
